{"title":"Brisco ft Lil Wayne - On The Wall [KingPinVideos]","uid":5764222,"size":78956109,"categoryP":"video","categoryS":"music_videos","magnet":"?xt=urn:btih:66d7381cb2ae4d3b290fd71883e3c80798dd17e2&amp;dn=Brisco+ft+Lil+Wayne+-+On+The+Wall+%5BKingPinVideos%5D&amp;tr=udp%3A%2F%2Ftracker.openbittorrent.com%3A80&amp;tr=udp%3A%2F%2Fopen.demonii.com%3A1337&amp;tr=udp%3A%2F%2Ftracker.coppersurfer.tk%3A6969&amp;tr=udp%3A%2F%2Fexodus.desync.com%3A6969","seeders":0,"leechers":0,"uploader":"KingPinMan","files":4,"time":1281826443,"description":"[img]http://a.imageshack.us/img839/966/briscowall.png[/img]\n\n[img]http://a.imageshack.us/img37/2774/briscowall2.png[/img]\n\n[code]General\nComplete name                    : Brisco ft Lil Wayne - On The Wall [KingPinVideos].mpg\nFormat                           : MPEG-PS\nFile size                        : 75.3 MiB\nDuration                         : 3mn 41s\nOverall bit rate                 : 2 856 Kbps\nWriting library                  : encoded by TMPGEnc 4.0 XPress Version. 4.7.4.299\n\nVideo\nID                               : 224 (0xE0)\nFormat                           : MPEG Video\nFormat version                   : Version 1\nFormat settings, BVOP            : Yes\nFormat settings, Matrix          : Default\nDuration                         : 3mn 41s\nBit rate mode                    : Constant\nBit rate                         : 2 615 Kbps\nNominal bit rate                 : 2 700 Kbps\nWidth                            : 384 pixels\nHeight                           : 208 pixels\nDisplay aspect ratio             : 16:9\nFrame rate                       : 29.970 fps\nResolution                       : 8 bits\nScan type                        : Progressive\nBits/(Pixel*Frame)               : 1.092\nStream size                      : 68.9 MiB (92%)\nWriting library                  : TMPGEnc XPress 4.7.4.299\n\nAudio\nID                               : 192 (0xC0)\nFormat                           : MPEG Audio\nFormat version                   : Version 1\nFormat profile                   : Layer 2\nDuration                         : 3mn 41s\nBit rate mode                    : Constant\nBit rate                         : 128 Kbps\nChannel(s)                       : 2 channels\nSampling rate                    : 48.0 KHz\nStream size                      : 3.37 MiB (4%)[/code]\n","torrent":{"xt":"urn:btih:66d7381cb2ae4d3b290fd71883e3c80798dd17e2","amp;dn":"Brisco+ft+Lil+Wayne+-+On+The+Wall+%5BKingPinVideos%5D","amp;tr":["udp%3A%2F%2Ftracker.openbittorrent.com%3A80","udp%3A%2F%2Fopen.demonii.com%3A1337","udp%3A%2F%2Ftracker.coppersurfer.tk%3A6969","udp%3A%2F%2Fexodus.desync.com%3A6969"],"infoHash":"66d7381cb2ae4d3b290fd71883e3c80798dd17e2","infoHashBuffer":{"type":"Buffer","data":[102,215,56,28,178,174,77,59,41,15,215,24,131,227,200,7,152,221,23,226]},"announce":[],"urlList":[]}}